<svg version="1.1" xmlns="http://www.w3.org/2000/svg" xmlns:xlink="http://www.w3.org/1999/xlink" width="61.10442" height="61.39922" viewBox="0,0,61.10442,61.39922"><defs><linearGradient x1="240" y1="167.42643" x2="240" y2="192.57357" gradientUnits="userSpaceOnUse" id="color-1"><stop offset="0" stop-color="#000000"/><stop offset="1" stop-color="#5b5b5b"/></linearGradient></defs><g transform="translate(-209.44779,-149.30039)"><g data-paper-data="{&quot;isPaintingLayer&quot;:true}" fill-rule="nonzero" stroke="none" stroke-width="0" stroke-linecap="butt" stroke-linejoin="miter" stroke-miterlimit="10" stroke-dasharray="" stroke-dashoffset="0" style="mix-blend-mode: normal"><path d="M224.63211,179.67075c-8.38607,0 -15.18432,-6.79826 -15.18432,-15.18433c0,-8.38606 6.79825,-15.18431 15.18432,-15.18431c8.38606,0 15.18431,6.79824 15.18431,15.18431c0,8.38607 -6.79824,15.18433 -15.18431,15.18433z" data-paper-data="{&quot;index&quot;:null}" fill="#353535"/><path d="M255.33468,179.82217c-8.38606,0 -15.18432,-6.79825 -15.18432,-15.18432c0,-8.38606 6.79825,-15.18431 15.18432,-15.18431c8.38606,0 15.18431,6.79824 15.18431,15.18431c0,8.38607 -6.79824,15.18432 -15.18431,15.18432z" data-paper-data="{&quot;index&quot;:null}" fill="#f0d481"/><path d="M255.3679,210.69961c-8.38607,0 -15.18432,-6.79825 -15.18432,-15.18432c0,-8.38607 6.79825,-15.18432 15.18432,-15.18432c8.38606,0 15.18431,6.79825 15.18431,15.18432c0,8.38606 -6.79824,15.18432 -15.18431,15.18432z" data-paper-data="{&quot;index&quot;:null}" fill="#353535"/><path d="M224.66533,210.53725c-8.38607,0 -15.18432,-6.79825 -15.18432,-15.18432c0,-8.38606 6.79825,-15.18431 15.18432,-15.18431c8.38606,0 15.18431,6.79824 15.18431,15.18431c0,8.38606 -6.79824,15.18432 -15.18431,15.18432z" data-paper-data="{&quot;index&quot;:null}" fill="#f0d481"/><path d="M223.15095,210.4817v-61.09183h33.018v61.09182z" data-paper-data="{&quot;index&quot;:null}" fill="#353535"/><path d="M209.56123,196.64828v-31.39579h60.90209v31.39579z" data-paper-data="{&quot;index&quot;:null}" fill="#353535"/><path d="M239.85958,210.52072c0,0 -10.70798,0.15433 -15.17926,0.15433c-8.38607,0 -15.18432,-6.79825 -15.18432,-15.18432c0,-3.80219 0.06407,-15.01612 0.06407,-15.01612c0,0 10.53638,-0.16819 15.12025,-0.16819c4.17814,0 15.20761,-0.08186 15.20761,-0.08186c0,0 -0.0233,11.05824 -0.0233,15.26617c0,3.91478 -0.00505,15.02999 -0.00505,15.02999z" data-paper-data="{&quot;index&quot;:null}" fill="#353535"/><path d="M240.14289,149.45472c0,0 10.70798,-0.15433 15.17926,-0.15433c8.38607,0 15.18432,6.79825 15.18432,15.18432c0,3.80219 -0.06407,15.01612 -0.06407,15.01612c0,0 -10.53637,0.16819 -15.12025,0.16819c-4.36414,0 -15.06805,0.37769 -15.06805,0.37769c0,0 -0.11626,-11.54008 -0.11626,-15.562c0,-3.91478 0.00505,-15.02999 0.00505,-15.02999z" data-paper-data="{&quot;index&quot;:null}" fill="#353535"/><path d="M216.78923,180c0,-12.81894 10.39182,-23.21077 23.21077,-23.21077c12.81894,0 23.21077,10.39182 23.21077,23.21077c0,12.81894 -10.39181,23.21077 -23.21077,23.21077c-12.81894,0 -23.21077,-10.39182 -23.21077,-23.21077z" data-paper-data="{&quot;index&quot;:null}" fill="#ffffff"/><path d="M227.42643,180c0,-6.94421 5.62937,-12.57357 12.57357,-12.57357c6.94421,0 12.57357,5.62937 12.57357,12.57357c0,6.94421 -5.62937,12.57357 -12.57357,12.57357c-6.94421,0 -12.57357,-5.62937 -12.57357,-12.57357z" data-paper-data="{&quot;index&quot;:null}" fill="url(#color-1)"/><path d="M242.06576,177.17317c0,-2.14037 1.73512,-3.87549 3.87548,-3.87549c2.14037,0 3.87549,1.73512 3.87549,3.87549c0,2.14037 -1.73512,3.87548 -3.87549,3.87548c-2.14037,0 -3.87548,-1.73512 -3.87548,-3.87548z" data-paper-data="{&quot;index&quot;:null}" fill="#ffffff"/></g></g></svg>